<svg xmlns="http://www.w3.org/2000/svg" width="320" height="320" viewBox="0 0 320 320" shape-rendering="crispEdges"><rect x="56" y="8" width="4" height="12" fill="#ff8aff"/><rect x="52" y="12" width="12" height="4" fill="#ff8aff"/><rect x="56" y="12" width="4" height="4" fill="#fff4d6"/><rect x="140" y="120" width="4" height="12" fill="#c77dff"/><rect x="136" y="124" width="12" height="4" fill="#c77dff"/><rect x="140" y="124" width="4" height="4" fill="#fff4d6"/><rect x="112" y="64" width="4" height="12" fill="#c77dff"/><rect x="108" y="68" width="12" height="4" fill="#c77dff"/><rect x="112" y="68" width="4" height="4" fill="#fff4d6"/><rect x="52" y="272" width="4" height="12" fill="#c77dff"/><rect x="48" y="276" width="12" height="4" fill="#c77dff"/><rect x="52" y="276" width="4" height="4" fill="#fff4d6"/><rect x="44" y="296" width="4" height="12" fill="#c77dff"/><rect x="40" y="300" width="12" height="4" fill="#c77dff"/><rect x="44" y="300" width="4" height="4" fill="#fff4d6"/><rect x="216" y="12" width="4" height="12" fill="#7df9ff"/><rect x="212" y="16" width="12" height="4" fill="#7df9ff"/><rect x="216" y="16" width="4" height="4" fill="#fff4d6"/><rect x="12" y="40" width="4" height="12" fill="#ff8aff"/><rect x="8" y="44" width="12" height="4" fill="#ff8aff"/><rect x="12" y="44" width="4" height="4" fill="#fff4d6"/><rect x="108" y="112" width="4" height="12" fill="#7df9ff"/><rect x="104" y="116" width="12" height="4" fill="#7df9ff"/><rect x="108" y="116" width="4" height="4" fill="#fff4d6"/><rect x="256" y="304" width="4" height="12" fill="#c77dff"/><rect x="252" y="308" width="12" height="4" fill="#c77dff"/><rect x="256" y="308" width="4" height="4" fill="#fff4d6"/><rect x="12" y="280" width="4" height="12" fill="#7df9ff"/><rect x="8" y="284" width="12" height="4" fill="#7df9ff"/><rect x="12" y="284" width="4" height="4" fill="#fff4d6"/><rect x="0" y="80" width="4" height="4" fill="#ff8aff" opacity="0.85"/><rect x="216" y="172" width="4" height="4" fill="#f0d0ff" opacity="0.85"/><rect x="140" y="76" width="4" height="4" fill="#c77dff" opacity="0.85"/><rect x="108" y="172" width="4" height="4" fill="#ff8aff" opacity="0.35"/><rect x="52" y="44" width="4" height="4" fill="#c77dff" opacity="0.35"/><rect x="192" y="48" width="4" height="4" fill="#ff8aff" opacity="0.6"/><rect x="180" y="176" width="4" height="4" fill="#ff8aff" opacity="0.35"/><rect x="308" y="132" width="4" height="4" fill="#c77dff" opacity="0.85"/><rect x="20" y="232" width="4" height="4" fill="#f0d0ff" opacity="0.6"/><rect x="272" y="60" width="4" height="4" fill="#c77dff" opacity="0.85"/><rect x="192" y="40" width="4" height="4" fill="#ff8aff" opacity="0.6"/><rect x="280" y="148" width="4" height="4" fill="#f0d0ff" opacity="0.6"/><rect x="316" y="184" width="4" height="4" fill="#c77dff" opacity="0.6"/><rect x="292" y="96" width="4" height="4" fill="#c77dff" opacity="0.35"/><rect x="32" y="20" width="4" height="4" fill="#f0d0ff" opacity="0.85"/><rect x="116" y="148" width="4" height="4" fill="#f0d0ff" opacity="0.6"/><rect x="40" y="116" width="4" height="4" fill="#f0d0ff" opacity="0.85"/><rect x="48" y="192" width="4" height="4" fill="#ff8aff" opacity="0.85"/><rect x="140" y="232" width="4" height="4" fill="#ff8aff" opacity="0.6"/><rect x="184" y="80" width="4" height="4" fill="#c77dff" opacity="0.35"/><rect x="188" y="180" width="4" height="4" fill="#f0d0ff" opacity="0.6"/><rect x="104" y="136" width="4" height="4" fill="#c77dff" opacity="0.35"/><rect x="36" y="308" width="4" height="4" fill="#c77dff" opacity="0.35"/><rect x="84" y="272" width="4" height="4" fill="#f0d0ff" opacity="0.35"/><rect x="124" y="80" width="4" height="4" fill="#f0d0ff" opacity="0.6"/><rect x="236" y="192" width="4" height="4" fill="#f0d0ff" opacity="0.35"/></svg>