<svg xmlns="http://www.w3.org/2000/svg" width="320" height="320" viewBox="0 0 320 320" shape-rendering="crispEdges"><rect x="192" y="168" width="4" height="4" fill="#fff4d6" opacity="0.5"/><rect x="84" y="196" width="4" height="4" fill="#fff4d6" opacity="0.8"/><rect x="280" y="140" width="4" height="4" fill="#fff4d6" opacity="0.8"/><rect x="292" y="4" width="4" height="4" fill="#fff4d6" opacity="0.5"/><rect x="8" y="224" width="4" height="4" fill="#fff4d6" opacity="0.5"/><rect x="76" y="160" width="4" height="4" fill="#fff4d6" opacity="0.5"/><rect x="128" y="316" width="4" height="4" fill="#fff4d6" opacity="0.5"/><rect x="60" y="300" width="4" height="4" fill="#fff4d6" opacity="0.5"/><rect x="220" y="144" width="4" height="4" fill="#fff4d6" opacity="0.5"/><rect x="36" y="184" width="4" height="4" fill="#fff4d6" opacity="0.8"/><rect x="64" y="284" width="4" height="4" fill="#fff4d6" opacity="0.5"/><rect x="60" y="48" width="4" height="4" fill="#fff4d6" opacity="0.5"/><rect x="88" y="24" width="4" height="4" fill="#fff4d6" opacity="0.8"/><rect x="160" y="112" width="4" height="4" fill="#fff4d6" opacity="0.5"/><rect x="308" y="292" width="4" height="4" fill="#fff4d6" opacity="0.5"/><rect x="220" y="28" width="4" height="4" fill="#fff4d6" opacity="0.8"/><rect x="204" y="72" width="8" height="4" fill="#ffcf8a" opacity="0.25"/><rect x="52" y="44" width="8" height="4" fill="#ffcf8a" opacity="0.25"/><rect x="208" y="8" width="8" height="4" fill="#ffcf8a" opacity="0.25"/><rect x="252" y="200" width="8" height="4" fill="#ffcf8a" opacity="0.25"/><rect x="116" y="8" width="8" height="4" fill="#ffcf8a" opacity="0.25"/><rect x="40" y="68" width="8" height="4" fill="#ffcf8a" opacity="0.25"/><rect x="36" y="232" width="8" height="4" fill="#ffcf8a" opacity="0.25"/><rect x="204" y="216" width="8" height="4" fill="#ffcf8a" opacity="0.25"/><rect x="272" y="140" width="8" height="4" fill="#ffcf8a" opacity="0.25"/><rect x="276" y="12" width="8" height="4" fill="#ffcf8a" opacity="0.25"/><rect x="4" y="236" width="8" height="4" fill="#ffcf8a" opacity="0.25"/><rect x="164" y="88" width="8" height="4" fill="#ffcf8a" opacity="0.25"/><rect x="68" y="32" width="8" height="4" fill="#ffcf8a" opacity="0.25"/><rect x="20" y="52" width="8" height="4" fill="#ffcf8a" opacity="0.25"/></svg>
