<svg xmlns="http://www.w3.org/2000/svg" width="320" height="320" viewBox="0 0 320 320" shape-rendering="crispEdges"><rect x="116" y="296" width="12" height="12" fill="#b4f5c8" opacity="0.18"/><rect x="120" y="300" width="4" height="4" fill="#b4f5c8" opacity="0.95"/><rect x="308" y="240" width="4" height="4" fill="#b4f5c8" opacity="0.85"/><rect x="4" y="240" width="4" height="4" fill="#fff3a3" opacity="0.45"/><rect x="240" y="276" width="4" height="4" fill="#b4f5c8" opacity="0.85"/><rect x="72" y="112" width="12" height="12" fill="#b4f5c8" opacity="0.18"/><rect x="76" y="116" width="4" height="4" fill="#b4f5c8" opacity="0.95"/><rect x="260" y="192" width="12" height="12" fill="#b4f5c8" opacity="0.18"/><rect x="264" y="196" width="4" height="4" fill="#b4f5c8" opacity="0.95"/><rect x="28" y="76" width="12" height="12" fill="#b4f5c8" opacity="0.18"/><rect x="32" y="80" width="4" height="4" fill="#b4f5c8" opacity="0.95"/><rect x="12" y="136" width="4" height="4" fill="#fff3a3" opacity="0.65"/><rect x="216" y="200" width="4" height="4" fill="#b4f5c8" opacity="0.65"/><rect x="64" y="180" width="12" height="12" fill="#d8ff6a" opacity="0.18"/><rect x="68" y="184" width="4" height="4" fill="#d8ff6a" opacity="0.95"/><rect x="252" y="108" width="4" height="4" fill="#fff3a3" opacity="0.65"/><rect x="152" y="212" width="4" height="4" fill="#b4f5c8" opacity="0.85"/><rect x="176" y="272" width="4" height="4" fill="#b4f5c8" opacity="0.45"/><rect x="172" y="12" width="4" height="4" fill="#fff3a3" opacity="0.85"/><rect x="80" y="164" width="4" height="4" fill="#b4f5c8" opacity="0.85"/><rect x="52" y="108" width="4" height="4" fill="#b4f5c8" opacity="0.85"/><rect x="132" y="140" width="12" height="12" fill="#d8ff6a" opacity="0.18"/><rect x="136" y="144" width="4" height="4" fill="#d8ff6a" opacity="0.95"/><rect x="244" y="44" width="4" height="4" fill="#fff3a3" opacity="0.65"/><rect x="76" y="8" width="4" height="4" fill="#fff3a3" opacity="0.65"/><rect x="60" y="20" width="4" height="4" fill="#b4f5c8" opacity="0.45"/><rect x="192" y="300" width="4" height="4" fill="#fff3a3" opacity="0.65"/><rect x="256" y="120" width="4" height="4" fill="#d8ff6a" opacity="0.45"/><rect x="48" y="300" width="12" height="12" fill="#b4f5c8" opacity="0.18"/><rect x="52" y="304" width="4" height="4" fill="#b4f5c8" opacity="0.95"/><rect x="100" y="208" width="4" height="4" fill="#fff3a3" opacity="0.45"/><rect x="20" y="172" width="4" height="4" fill="#fff3a3" opacity="0.45"/><rect x="192" y="192" width="4" height="4" fill="#fff3a3" opacity="0.65"/></svg>
