<svg xmlns="http://www.w3.org/2000/svg" width="480" height="160" viewBox="0 0 480 160" shape-rendering="crispEdges"><rect x="6" y="104" width="8" height="160" fill="#2a6352"/><rect x="6" y="52" width="8" height="4" fill="#2a6352"/><rect x="2" y="56" width="16" height="4" fill="#2a6352"/><rect x="-2" y="60" width="24" height="4" fill="#2a6352"/><rect x="-6" y="64" width="32" height="4" fill="#2a6352"/><rect x="-10" y="68" width="40" height="4" fill="#2a6352"/><rect x="2" y="72" width="16" height="4" fill="#2a6352"/><rect x="-2" y="76" width="24" height="4" fill="#2a6352"/><rect x="-6" y="80" width="32" height="4" fill="#2a6352"/><rect x="-10" y="84" width="40" height="4" fill="#2a6352"/><rect x="-14" y="88" width="48" height="4" fill="#2a6352"/><rect x="-2" y="92" width="24" height="4" fill="#2a6352"/><rect x="-6" y="96" width="32" height="4" fill="#2a6352"/><rect x="-10" y="100" width="40" height="4" fill="#2a6352"/><rect x="-14" y="104" width="48" height="4" fill="#2a6352"/><rect x="-18" y="108" width="56" height="4" fill="#2a6352"/><rect x="-474" y="104" width="8" height="160" fill="#2a6352"/><rect x="-474" y="52" width="8" height="4" fill="#2a6352"/><rect x="-478" y="56" width="16" height="4" fill="#2a6352"/><rect x="-482" y="60" width="24" height="4" fill="#2a6352"/><rect x="-486" y="64" width="32" height="4" fill="#2a6352"/><rect x="-490" y="68" width="40" height="4" fill="#2a6352"/><rect x="-478" y="72" width="16" height="4" fill="#2a6352"/><rect x="-482" y="76" width="24" height="4" fill="#2a6352"/><rect x="-486" y="80" width="32" height="4" fill="#2a6352"/><rect x="-490" y="84" width="40" height="4" fill="#2a6352"/><rect x="-494" y="88" width="48" height="4" fill="#2a6352"/><rect x="-482" y="92" width="24" height="4" fill="#2a6352"/><rect x="-486" y="96" width="32" height="4" fill="#2a6352"/><rect x="-490" y="100" width="40" height="4" fill="#2a6352"/><rect x="-494" y="104" width="48" height="4" fill="#2a6352"/><rect x="-498" y="108" width="56" height="4" fill="#2a6352"/><rect x="486" y="104" width="8" height="160" fill="#2a6352"/><rect x="486" y="52" width="8" height="4" fill="#2a6352"/><rect x="482" y="56" width="16" height="4" fill="#2a6352"/><rect x="478" y="60" width="24" height="4" fill="#2a6352"/><rect x="474" y="64" width="32" height="4" fill="#2a6352"/><rect x="470" y="68" width="40" height="4" fill="#2a6352"/><rect x="482" y="72" width="16" height="4" fill="#2a6352"/><rect x="478" y="76" width="24" height="4" fill="#2a6352"/><rect x="474" y="80" width="32" height="4" fill="#2a6352"/><rect x="470" y="84" width="40" height="4" fill="#2a6352"/><rect x="466" y="88" width="48" height="4" fill="#2a6352"/><rect x="478" y="92" width="24" height="4" fill="#2a6352"/><rect x="474" y="96" width="32" height="4" fill="#2a6352"/><rect x="470" y="100" width="40" height="4" fill="#2a6352"/><rect x="466" y="104" width="48" height="4" fill="#2a6352"/><rect x="462" y="108" width="56" height="4" fill="#2a6352"/><rect x="51" y="104" width="8" height="160" fill="#2a6352"/><rect x="51" y="28" width="8" height="4" fill="#2a6352"/><rect x="47" y="32" width="16" height="4" fill="#2a6352"/><rect x="43" y="36" width="24" height="4" fill="#2a6352"/><rect x="39" y="40" width="32" height="4" fill="#2a6352"/><rect x="35" y="44" width="40" height="4" fill="#2a6352"/><rect x="31" y="48" width="48" height="4" fill="#2a6352"/><rect x="27" y="52" width="56" height="4" fill="#2a6352"/><rect x="47" y="56" width="16" height="4" fill="#2a6352"/><rect x="43" y="60" width="24" height="4" fill="#2a6352"/><rect x="39" y="64" width="32" height="4" fill="#2a6352"/><rect x="35" y="68" width="40" height="4" fill="#2a6352"/><rect x="31" y="72" width="48" height="4" fill="#2a6352"/><rect x="27" y="76" width="56" height="4" fill="#2a6352"/><rect x="23" y="80" width="64" height="4" fill="#2a6352"/><rect x="43" y="84" width="24" height="4" fill="#2a6352"/><rect x="39" y="88" width="32" height="4" fill="#2a6352"/><rect x="35" y="92" width="40" height="4" fill="#2a6352"/><rect x="31" y="96" width="48" height="4" fill="#2a6352"/><rect x="27" y="100" width="56" height="4" fill="#2a6352"/><rect x="23" y="104" width="64" height="4" fill="#2a6352"/><rect x="19" y="108" width="72" height="4" fill="#2a6352"/><rect x="-429" y="104" width="8" height="160" fill="#2a6352"/><rect x="-429" y="28" width="8" height="4" fill="#2a6352"/><rect x="-433" y="32" width="16" height="4" fill="#2a6352"/><rect x="-437" y="36" width="24" height="4" fill="#2a6352"/><rect x="-441" y="40" width="32" height="4" fill="#2a6352"/><rect x="-445" y="44" width="40" height="4" fill="#2a6352"/><rect x="-449" y="48" width="48" height="4" fill="#2a6352"/><rect x="-453" y="52" width="56" height="4" fill="#2a6352"/><rect x="-433" y="56" width="16" height="4" fill="#2a6352"/><rect x="-437" y="60" width="24" height="4" fill="#2a6352"/><rect x="-441" y="64" width="32" height="4" fill="#2a6352"/><rect x="-445" y="68" width="40" height="4" fill="#2a6352"/><rect x="-449" y="72" width="48" height="4" fill="#2a6352"/><rect x="-453" y="76" width="56" height="4" fill="#2a6352"/><rect x="-457" y="80" width="64" height="4" fill="#2a6352"/><rect x="-437" y="84" width="24" height="4" fill="#2a6352"/><rect x="-441" y="88" width="32" height="4" fill="#2a6352"/><rect x="-445" y="92" width="40" height="4" fill="#2a6352"/><rect x="-449" y="96" width="48" height="4" fill="#2a6352"/><rect x="-453" y="100" width="56" height="4" fill="#2a6352"/><rect x="-457" y="104" width="64" height="4" fill="#2a6352"/><rect x="-461" y="108" width="72" height="4" fill="#2a6352"/><rect x="531" y="104" width="8" height="160" fill="#2a6352"/><rect x="531" y="28" width="8" height="4" fill="#2a6352"/><rect x="527" y="32" width="16" height="4" fill="#2a6352"/><rect x="523" y="36" width="24" height="4" fill="#2a6352"/><rect x="519" y="40" width="32" height="4" fill="#2a6352"/><rect x="515" y="44" width="40" height="4" fill="#2a6352"/><rect x="511" y="48" width="48" height="4" fill="#2a6352"/><rect x="507" y="52" width="56" height="4" fill="#2a6352"/><rect x="527" y="56" width="16" height="4" fill="#2a6352"/><rect x="523" y="60" width="24" height="4" fill="#2a6352"/><rect x="519" y="64" width="32" height="4" fill="#2a6352"/><rect x="515" y="68" width="40" height="4" fill="#2a6352"/><rect x="511" y="72" width="48" height="4" fill="#2a6352"/><rect x="507" y="76" width="56" height="4" fill="#2a6352"/><rect x="503" y="80" width="64" height="4" fill="#2a6352"/><rect x="523" y="84" width="24" height="4" fill="#2a6352"/><rect x="519" y="88" width="32" height="4" fill="#2a6352"/><rect x="515" y="92" width="40" height="4" fill="#2a6352"/><rect x="511" y="96" width="48" height="4" fill="#2a6352"/><rect x="507" y="100" width="56" height="4" fill="#2a6352"/><rect x="503" y="104" width="64" height="4" fill="#2a6352"/><rect x="499" y="108" width="72" height="4" fill="#2a6352"/><rect x="112" y="104" width="8" height="160" fill="#2a6352"/><rect x="112" y="76" width="8" height="4" fill="#2a6352"/><rect x="108" y="80" width="16" height="4" fill="#2a6352"/><rect x="104" y="84" width="24" height="4" fill="#2a6352"/><rect x="108" y="88" width="16" height="4" fill="#2a6352"/><rect x="104" y="92" width="24" height="4" fill="#2a6352"/><rect x="100" y="96" width="32" height="4" fill="#2a6352"/><rect x="104" y="100" width="24" height="4" fill="#2a6352"/><rect x="100" y="104" width="32" height="4" fill="#2a6352"/><rect x="96" y="108" width="40" height="4" fill="#2a6352"/><rect x="-368" y="104" width="8" height="160" fill="#2a6352"/><rect x="-368" y="76" width="8" height="4" fill="#2a6352"/><rect x="-372" y="80" width="16" height="4" fill="#2a6352"/><rect x="-376" y="84" width="24" height="4" fill="#2a6352"/><rect x="-372" y="88" width="16" height="4" fill="#2a6352"/><rect x="-376" y="92" width="24" height="4" fill="#2a6352"/><rect x="-380" y="96" width="32" height="4" fill="#2a6352"/><rect x="-376" y="100" width="24" height="4" fill="#2a6352"/><rect x="-380" y="104" width="32" height="4" fill="#2a6352"/><rect x="-384" y="108" width="40" height="4" fill="#2a6352"/><rect x="592" y="104" width="8" height="160" fill="#2a6352"/><rect x="592" y="76" width="8" height="4" fill="#2a6352"/><rect x="588" y="80" width="16" height="4" fill="#2a6352"/><rect x="584" y="84" width="24" height="4" fill="#2a6352"/><rect x="588" y="88" width="16" height="4" fill="#2a6352"/><rect x="584" y="92" width="24" height="4" fill="#2a6352"/><rect x="580" y="96" width="32" height="4" fill="#2a6352"/><rect x="584" y="100" width="24" height="4" fill="#2a6352"/><rect x="580" y="104" width="32" height="4" fill="#2a6352"/><rect x="576" y="108" width="40" height="4" fill="#2a6352"/><rect x="162" y="104" width="8" height="160" fill="#2a6352"/><rect x="162" y="76" width="8" height="4" fill="#2a6352"/><rect x="158" y="80" width="16" height="4" fill="#2a6352"/><rect x="154" y="84" width="24" height="4" fill="#2a6352"/><rect x="158" y="88" width="16" height="4" fill="#2a6352"/><rect x="154" y="92" width="24" height="4" fill="#2a6352"/><rect x="150" y="96" width="32" height="4" fill="#2a6352"/><rect x="154" y="100" width="24" height="4" fill="#2a6352"/><rect x="150" y="104" width="32" height="4" fill="#2a6352"/><rect x="146" y="108" width="40" height="4" fill="#2a6352"/><rect x="-318" y="104" width="8" height="160" fill="#2a6352"/><rect x="-318" y="76" width="8" height="4" fill="#2a6352"/><rect x="-322" y="80" width="16" height="4" fill="#2a6352"/><rect x="-326" y="84" width="24" height="4" fill="#2a6352"/><rect x="-322" y="88" width="16" height="4" fill="#2a6352"/><rect x="-326" y="92" width="24" height="4" fill="#2a6352"/><rect x="-330" y="96" width="32" height="4" fill="#2a6352"/><rect x="-326" y="100" width="24" height="4" fill="#2a6352"/><rect x="-330" y="104" width="32" height="4" fill="#2a6352"/><rect x="-334" y="108" width="40" height="4" fill="#2a6352"/><rect x="642" y="104" width="8" height="160" fill="#2a6352"/><rect x="642" y="76" width="8" height="4" fill="#2a6352"/><rect x="638" y="80" width="16" height="4" fill="#2a6352"/><rect x="634" y="84" width="24" height="4" fill="#2a6352"/><rect x="638" y="88" width="16" height="4" fill="#2a6352"/><rect x="634" y="92" width="24" height="4" fill="#2a6352"/><rect x="630" y="96" width="32" height="4" fill="#2a6352"/><rect x="634" y="100" width="24" height="4" fill="#2a6352"/><rect x="630" y="104" width="32" height="4" fill="#2a6352"/><rect x="626" y="108" width="40" height="4" fill="#2a6352"/><rect x="203" y="104" width="8" height="160" fill="#2a6352"/><rect x="203" y="76" width="8" height="4" fill="#2a6352"/><rect x="199" y="80" width="16" height="4" fill="#2a6352"/><rect x="195" y="84" width="24" height="4" fill="#2a6352"/><rect x="199" y="88" width="16" height="4" fill="#2a6352"/><rect x="195" y="92" width="24" height="4" fill="#2a6352"/><rect x="191" y="96" width="32" height="4" fill="#2a6352"/><rect x="195" y="100" width="24" height="4" fill="#2a6352"/><rect x="191" y="104" width="32" height="4" fill="#2a6352"/><rect x="187" y="108" width="40" height="4" fill="#2a6352"/><rect x="-277" y="104" width="8" height="160" fill="#2a6352"/><rect x="-277" y="76" width="8" height="4" fill="#2a6352"/><rect x="-281" y="80" width="16" height="4" fill="#2a6352"/><rect x="-285" y="84" width="24" height="4" fill="#2a6352"/><rect x="-281" y="88" width="16" height="4" fill="#2a6352"/><rect x="-285" y="92" width="24" height="4" fill="#2a6352"/><rect x="-289" y="96" width="32" height="4" fill="#2a6352"/><rect x="-285" y="100" width="24" height="4" fill="#2a6352"/><rect x="-289" y="104" width="32" height="4" fill="#2a6352"/><rect x="-293" y="108" width="40" height="4" fill="#2a6352"/><rect x="683" y="104" width="8" height="160" fill="#2a6352"/><rect x="683" y="76" width="8" height="4" fill="#2a6352"/><rect x="679" y="80" width="16" height="4" fill="#2a6352"/><rect x="675" y="84" width="24" height="4" fill="#2a6352"/><rect x="679" y="88" width="16" height="4" fill="#2a6352"/><rect x="675" y="92" width="24" height="4" fill="#2a6352"/><rect x="671" y="96" width="32" height="4" fill="#2a6352"/><rect x="675" y="100" width="24" height="4" fill="#2a6352"/><rect x="671" y="104" width="32" height="4" fill="#2a6352"/><rect x="667" y="108" width="40" height="4" fill="#2a6352"/><rect x="256" y="104" width="8" height="160" fill="#2a6352"/><rect x="256" y="52" width="8" height="4" fill="#2a6352"/><rect x="252" y="56" width="16" height="4" fill="#2a6352"/><rect x="248" y="60" width="24" height="4" fill="#2a6352"/><rect x="244" y="64" width="32" height="4" fill="#2a6352"/><rect x="240" y="68" width="40" height="4" fill="#2a6352"/><rect x="252" y="72" width="16" height="4" fill="#2a6352"/><rect x="248" y="76" width="24" height="4" fill="#2a6352"/><rect x="244" y="80" width="32" height="4" fill="#2a6352"/><rect x="240" y="84" width="40" height="4" fill="#2a6352"/><rect x="236" y="88" width="48" height="4" fill="#2a6352"/><rect x="248" y="92" width="24" height="4" fill="#2a6352"/><rect x="244" y="96" width="32" height="4" fill="#2a6352"/><rect x="240" y="100" width="40" height="4" fill="#2a6352"/><rect x="236" y="104" width="48" height="4" fill="#2a6352"/><rect x="232" y="108" width="56" height="4" fill="#2a6352"/><rect x="-224" y="104" width="8" height="160" fill="#2a6352"/><rect x="-224" y="52" width="8" height="4" fill="#2a6352"/><rect x="-228" y="56" width="16" height="4" fill="#2a6352"/><rect x="-232" y="60" width="24" height="4" fill="#2a6352"/><rect x="-236" y="64" width="32" height="4" fill="#2a6352"/><rect x="-240" y="68" width="40" height="4" fill="#2a6352"/><rect x="-228" y="72" width="16" height="4" fill="#2a6352"/><rect x="-232" y="76" width="24" height="4" fill="#2a6352"/><rect x="-236" y="80" width="32" height="4" fill="#2a6352"/><rect x="-240" y="84" width="40" height="4" fill="#2a6352"/><rect x="-244" y="88" width="48" height="4" fill="#2a6352"/><rect x="-232" y="92" width="24" height="4" fill="#2a6352"/><rect x="-236" y="96" width="32" height="4" fill="#2a6352"/><rect x="-240" y="100" width="40" height="4" fill="#2a6352"/><rect x="-244" y="104" width="48" height="4" fill="#2a6352"/><rect x="-248" y="108" width="56" height="4" fill="#2a6352"/><rect x="736" y="104" width="8" height="160" fill="#2a6352"/><rect x="736" y="52" width="8" height="4" fill="#2a6352"/><rect x="732" y="56" width="16" height="4" fill="#2a6352"/><rect x="728" y="60" width="24" height="4" fill="#2a6352"/><rect x="724" y="64" width="32" height="4" fill="#2a6352"/><rect x="720" y="68" width="40" height="4" fill="#2a6352"/><rect x="732" y="72" width="16" height="4" fill="#2a6352"/><rect x="728" y="76" width="24" height="4" fill="#2a6352"/><rect x="724" y="80" width="32" height="4" fill="#2a6352"/><rect x="720" y="84" width="40" height="4" fill="#2a6352"/><rect x="716" y="88" width="48" height="4" fill="#2a6352"/><rect x="728" y="92" width="24" height="4" fill="#2a6352"/><rect x="724" y="96" width="32" height="4" fill="#2a6352"/><rect x="720" y="100" width="40" height="4" fill="#2a6352"/><rect x="716" y="104" width="48" height="4" fill="#2a6352"/><rect x="712" y="108" width="56" height="4" fill="#2a6352"/><rect x="322" y="104" width="8" height="160" fill="#2a6352"/><rect x="322" y="76" width="8" height="4" fill="#2a6352"/><rect x="318" y="80" width="16" height="4" fill="#2a6352"/><rect x="314" y="84" width="24" height="4" fill="#2a6352"/><rect x="318" y="88" width="16" height="4" fill="#2a6352"/><rect x="314" y="92" width="24" height="4" fill="#2a6352"/><rect x="310" y="96" width="32" height="4" fill="#2a6352"/><rect x="314" y="100" width="24" height="4" fill="#2a6352"/><rect x="310" y="104" width="32" height="4" fill="#2a6352"/><rect x="306" y="108" width="40" height="4" fill="#2a6352"/><rect x="-158" y="104" width="8" height="160" fill="#2a6352"/><rect x="-158" y="76" width="8" height="4" fill="#2a6352"/><rect x="-162" y="80" width="16" height="4" fill="#2a6352"/><rect x="-166" y="84" width="24" height="4" fill="#2a6352"/><rect x="-162" y="88" width="16" height="4" fill="#2a6352"/><rect x="-166" y="92" width="24" height="4" fill="#2a6352"/><rect x="-170" y="96" width="32" height="4" fill="#2a6352"/><rect x="-166" y="100" width="24" height="4" fill="#2a6352"/><rect x="-170" y="104" width="32" height="4" fill="#2a6352"/><rect x="-174" y="108" width="40" height="4" fill="#2a6352"/><rect x="802" y="104" width="8" height="160" fill="#2a6352"/><rect x="802" y="76" width="8" height="4" fill="#2a6352"/><rect x="798" y="80" width="16" height="4" fill="#2a6352"/><rect x="794" y="84" width="24" height="4" fill="#2a6352"/><rect x="798" y="88" width="16" height="4" fill="#2a6352"/><rect x="794" y="92" width="24" height="4" fill="#2a6352"/><rect x="790" y="96" width="32" height="4" fill="#2a6352"/><rect x="794" y="100" width="24" height="4" fill="#2a6352"/><rect x="790" y="104" width="32" height="4" fill="#2a6352"/><rect x="786" y="108" width="40" height="4" fill="#2a6352"/><rect x="375" y="104" width="8" height="160" fill="#2a6352"/><rect x="375" y="28" width="8" height="4" fill="#2a6352"/><rect x="371" y="32" width="16" height="4" fill="#2a6352"/><rect x="367" y="36" width="24" height="4" fill="#2a6352"/><rect x="363" y="40" width="32" height="4" fill="#2a6352"/><rect x="359" y="44" width="40" height="4" fill="#2a6352"/><rect x="355" y="48" width="48" height="4" fill="#2a6352"/><rect x="351" y="52" width="56" height="4" fill="#2a6352"/><rect x="371" y="56" width="16" height="4" fill="#2a6352"/><rect x="367" y="60" width="24" height="4" fill="#2a6352"/><rect x="363" y="64" width="32" height="4" fill="#2a6352"/><rect x="359" y="68" width="40" height="4" fill="#2a6352"/><rect x="355" y="72" width="48" height="4" fill="#2a6352"/><rect x="351" y="76" width="56" height="4" fill="#2a6352"/><rect x="347" y="80" width="64" height="4" fill="#2a6352"/><rect x="367" y="84" width="24" height="4" fill="#2a6352"/><rect x="363" y="88" width="32" height="4" fill="#2a6352"/><rect x="359" y="92" width="40" height="4" fill="#2a6352"/><rect x="355" y="96" width="48" height="4" fill="#2a6352"/><rect x="351" y="100" width="56" height="4" fill="#2a6352"/><rect x="347" y="104" width="64" height="4" fill="#2a6352"/><rect x="343" y="108" width="72" height="4" fill="#2a6352"/><rect x="-105" y="104" width="8" height="160" fill="#2a6352"/><rect x="-105" y="28" width="8" height="4" fill="#2a6352"/><rect x="-109" y="32" width="16" height="4" fill="#2a6352"/><rect x="-113" y="36" width="24" height="4" fill="#2a6352"/><rect x="-117" y="40" width="32" height="4" fill="#2a6352"/><rect x="-121" y="44" width="40" height="4" fill="#2a6352"/><rect x="-125" y="48" width="48" height="4" fill="#2a6352"/><rect x="-129" y="52" width="56" height="4" fill="#2a6352"/><rect x="-109" y="56" width="16" height="4" fill="#2a6352"/><rect x="-113" y="60" width="24" height="4" fill="#2a6352"/><rect x="-117" y="64" width="32" height="4" fill="#2a6352"/><rect x="-121" y="68" width="40" height="4" fill="#2a6352"/><rect x="-125" y="72" width="48" height="4" fill="#2a6352"/><rect x="-129" y="76" width="56" height="4" fill="#2a6352"/><rect x="-133" y="80" width="64" height="4" fill="#2a6352"/><rect x="-113" y="84" width="24" height="4" fill="#2a6352"/><rect x="-117" y="88" width="32" height="4" fill="#2a6352"/><rect x="-121" y="92" width="40" height="4" fill="#2a6352"/><rect x="-125" y="96" width="48" height="4" fill="#2a6352"/><rect x="-129" y="100" width="56" height="4" fill="#2a6352"/><rect x="-133" y="104" width="64" height="4" fill="#2a6352"/><rect x="-137" y="108" width="72" height="4" fill="#2a6352"/><rect x="855" y="104" width="8" height="160" fill="#2a6352"/><rect x="855" y="28" width="8" height="4" fill="#2a6352"/><rect x="851" y="32" width="16" height="4" fill="#2a6352"/><rect x="847" y="36" width="24" height="4" fill="#2a6352"/><rect x="843" y="40" width="32" height="4" fill="#2a6352"/><rect x="839" y="44" width="40" height="4" fill="#2a6352"/><rect x="835" y="48" width="48" height="4" fill="#2a6352"/><rect x="831" y="52" width="56" height="4" fill="#2a6352"/><rect x="851" y="56" width="16" height="4" fill="#2a6352"/><rect x="847" y="60" width="24" height="4" fill="#2a6352"/><rect x="843" y="64" width="32" height="4" fill="#2a6352"/><rect x="839" y="68" width="40" height="4" fill="#2a6352"/><rect x="835" y="72" width="48" height="4" fill="#2a6352"/><rect x="831" y="76" width="56" height="4" fill="#2a6352"/><rect x="827" y="80" width="64" height="4" fill="#2a6352"/><rect x="847" y="84" width="24" height="4" fill="#2a6352"/><rect x="843" y="88" width="32" height="4" fill="#2a6352"/><rect x="839" y="92" width="40" height="4" fill="#2a6352"/><rect x="835" y="96" width="48" height="4" fill="#2a6352"/><rect x="831" y="100" width="56" height="4" fill="#2a6352"/><rect x="827" y="104" width="64" height="4" fill="#2a6352"/><rect x="823" y="108" width="72" height="4" fill="#2a6352"/><rect x="416" y="104" width="8" height="160" fill="#2a6352"/><rect x="416" y="28" width="8" height="4" fill="#2a6352"/><rect x="412" y="32" width="16" height="4" fill="#2a6352"/><rect x="408" y="36" width="24" height="4" fill="#2a6352"/><rect x="404" y="40" width="32" height="4" fill="#2a6352"/><rect x="400" y="44" width="40" height="4" fill="#2a6352"/><rect x="396" y="48" width="48" height="4" fill="#2a6352"/><rect x="392" y="52" width="56" height="4" fill="#2a6352"/><rect x="412" y="56" width="16" height="4" fill="#2a6352"/><rect x="408" y="60" width="24" height="4" fill="#2a6352"/><rect x="404" y="64" width="32" height="4" fill="#2a6352"/><rect x="400" y="68" width="40" height="4" fill="#2a6352"/><rect x="396" y="72" width="48" height="4" fill="#2a6352"/><rect x="392" y="76" width="56" height="4" fill="#2a6352"/><rect x="388" y="80" width="64" height="4" fill="#2a6352"/><rect x="408" y="84" width="24" height="4" fill="#2a6352"/><rect x="404" y="88" width="32" height="4" fill="#2a6352"/><rect x="400" y="92" width="40" height="4" fill="#2a6352"/><rect x="396" y="96" width="48" height="4" fill="#2a6352"/><rect x="392" y="100" width="56" height="4" fill="#2a6352"/><rect x="388" y="104" width="64" height="4" fill="#2a6352"/><rect x="384" y="108" width="72" height="4" fill="#2a6352"/><rect x="-64" y="104" width="8" height="160" fill="#2a6352"/><rect x="-64" y="28" width="8" height="4" fill="#2a6352"/><rect x="-68" y="32" width="16" height="4" fill="#2a6352"/><rect x="-72" y="36" width="24" height="4" fill="#2a6352"/><rect x="-76" y="40" width="32" height="4" fill="#2a6352"/><rect x="-80" y="44" width="40" height="4" fill="#2a6352"/><rect x="-84" y="48" width="48" height="4" fill="#2a6352"/><rect x="-88" y="52" width="56" height="4" fill="#2a6352"/><rect x="-68" y="56" width="16" height="4" fill="#2a6352"/><rect x="-72" y="60" width="24" height="4" fill="#2a6352"/><rect x="-76" y="64" width="32" height="4" fill="#2a6352"/><rect x="-80" y="68" width="40" height="4" fill="#2a6352"/><rect x="-84" y="72" width="48" height="4" fill="#2a6352"/><rect x="-88" y="76" width="56" height="4" fill="#2a6352"/><rect x="-92" y="80" width="64" height="4" fill="#2a6352"/><rect x="-72" y="84" width="24" height="4" fill="#2a6352"/><rect x="-76" y="88" width="32" height="4" fill="#2a6352"/><rect x="-80" y="92" width="40" height="4" fill="#2a6352"/><rect x="-84" y="96" width="48" height="4" fill="#2a6352"/><rect x="-88" y="100" width="56" height="4" fill="#2a6352"/><rect x="-92" y="104" width="64" height="4" fill="#2a6352"/><rect x="-96" y="108" width="72" height="4" fill="#2a6352"/><rect x="896" y="104" width="8" height="160" fill="#2a6352"/><rect x="896" y="28" width="8" height="4" fill="#2a6352"/><rect x="892" y="32" width="16" height="4" fill="#2a6352"/><rect x="888" y="36" width="24" height="4" fill="#2a6352"/><rect x="884" y="40" width="32" height="4" fill="#2a6352"/><rect x="880" y="44" width="40" height="4" fill="#2a6352"/><rect x="876" y="48" width="48" height="4" fill="#2a6352"/><rect x="872" y="52" width="56" height="4" fill="#2a6352"/><rect x="892" y="56" width="16" height="4" fill="#2a6352"/><rect x="888" y="60" width="24" height="4" fill="#2a6352"/><rect x="884" y="64" width="32" height="4" fill="#2a6352"/><rect x="880" y="68" width="40" height="4" fill="#2a6352"/><rect x="876" y="72" width="48" height="4" fill="#2a6352"/><rect x="872" y="76" width="56" height="4" fill="#2a6352"/><rect x="868" y="80" width="64" height="4" fill="#2a6352"/><rect x="888" y="84" width="24" height="4" fill="#2a6352"/><rect x="884" y="88" width="32" height="4" fill="#2a6352"/><rect x="880" y="92" width="40" height="4" fill="#2a6352"/><rect x="876" y="96" width="48" height="4" fill="#2a6352"/><rect x="872" y="100" width="56" height="4" fill="#2a6352"/><rect x="868" y="104" width="64" height="4" fill="#2a6352"/><rect x="864" y="108" width="72" height="4" fill="#2a6352"/><rect x="0" y="108" width="480" height="52" fill="#2a6352"/><rect x="474" y="140" width="8" height="160" fill="#0e2a24"/><rect x="474" y="124" width="8" height="4" fill="#0e2a24"/><rect x="470" y="128" width="16" height="4" fill="#0e2a24"/><rect x="470" y="132" width="16" height="4" fill="#0e2a24"/><rect x="466" y="136" width="24" height="4" fill="#0e2a24"/><rect x="466" y="140" width="24" height="4" fill="#0e2a24"/><rect x="462" y="144" width="32" height="4" fill="#0e2a24"/><rect x="-6" y="140" width="8" height="160" fill="#0e2a24"/><rect x="-6" y="124" width="8" height="4" fill="#0e2a24"/><rect x="-10" y="128" width="16" height="4" fill="#0e2a24"/><rect x="-10" y="132" width="16" height="4" fill="#0e2a24"/><rect x="-14" y="136" width="24" height="4" fill="#0e2a24"/><rect x="-14" y="140" width="24" height="4" fill="#0e2a24"/><rect x="-18" y="144" width="32" height="4" fill="#0e2a24"/><rect x="954" y="140" width="8" height="160" fill="#0e2a24"/><rect x="954" y="124" width="8" height="4" fill="#0e2a24"/><rect x="950" y="128" width="16" height="4" fill="#0e2a24"/><rect x="950" y="132" width="16" height="4" fill="#0e2a24"/><rect x="946" y="136" width="24" height="4" fill="#0e2a24"/><rect x="946" y="140" width="24" height="4" fill="#0e2a24"/><rect x="942" y="144" width="32" height="4" fill="#0e2a24"/><rect x="62" y="140" width="8" height="160" fill="#0e2a24"/><rect x="62" y="100" width="8" height="4" fill="#0e2a24"/><rect x="58" y="104" width="16" height="4" fill="#0e2a24"/><rect x="54" y="108" width="24" height="4" fill="#0e2a24"/><rect x="50" y="112" width="32" height="4" fill="#0e2a24"/><rect x="58" y="116" width="16" height="4" fill="#0e2a24"/><rect x="54" y="120" width="24" height="4" fill="#0e2a24"/><rect x="50" y="124" width="32" height="4" fill="#0e2a24"/><rect x="46" y="128" width="40" height="4" fill="#0e2a24"/><rect x="54" y="132" width="24" height="4" fill="#0e2a24"/><rect x="50" y="136" width="32" height="4" fill="#0e2a24"/><rect x="46" y="140" width="40" height="4" fill="#0e2a24"/><rect x="42" y="144" width="48" height="4" fill="#0e2a24"/><rect x="-418" y="140" width="8" height="160" fill="#0e2a24"/><rect x="-418" y="100" width="8" height="4" fill="#0e2a24"/><rect x="-422" y="104" width="16" height="4" fill="#0e2a24"/><rect x="-426" y="108" width="24" height="4" fill="#0e2a24"/><rect x="-430" y="112" width="32" height="4" fill="#0e2a24"/><rect x="-422" y="116" width="16" height="4" fill="#0e2a24"/><rect x="-426" y="120" width="24" height="4" fill="#0e2a24"/><rect x="-430" y="124" width="32" height="4" fill="#0e2a24"/><rect x="-434" y="128" width="40" height="4" fill="#0e2a24"/><rect x="-426" y="132" width="24" height="4" fill="#0e2a24"/><rect x="-430" y="136" width="32" height="4" fill="#0e2a24"/><rect x="-434" y="140" width="40" height="4" fill="#0e2a24"/><rect x="-438" y="144" width="48" height="4" fill="#0e2a24"/><rect x="542" y="140" width="8" height="160" fill="#0e2a24"/><rect x="542" y="100" width="8" height="4" fill="#0e2a24"/><rect x="538" y="104" width="16" height="4" fill="#0e2a24"/><rect x="534" y="108" width="24" height="4" fill="#0e2a24"/><rect x="530" y="112" width="32" height="4" fill="#0e2a24"/><rect x="538" y="116" width="16" height="4" fill="#0e2a24"/><rect x="534" y="120" width="24" height="4" fill="#0e2a24"/><rect x="530" y="124" width="32" height="4" fill="#0e2a24"/><rect x="526" y="128" width="40" height="4" fill="#0e2a24"/><rect x="534" y="132" width="24" height="4" fill="#0e2a24"/><rect x="530" y="136" width="32" height="4" fill="#0e2a24"/><rect x="526" y="140" width="40" height="4" fill="#0e2a24"/><rect x="522" y="144" width="48" height="4" fill="#0e2a24"/><rect x="135" y="140" width="8" height="160" fill="#0e2a24"/><rect x="135" y="124" width="8" height="4" fill="#0e2a24"/><rect x="131" y="128" width="16" height="4" fill="#0e2a24"/><rect x="131" y="132" width="16" height="4" fill="#0e2a24"/><rect x="127" y="136" width="24" height="4" fill="#0e2a24"/><rect x="127" y="140" width="24" height="4" fill="#0e2a24"/><rect x="123" y="144" width="32" height="4" fill="#0e2a24"/><rect x="-345" y="140" width="8" height="160" fill="#0e2a24"/><rect x="-345" y="124" width="8" height="4" fill="#0e2a24"/><rect x="-349" y="128" width="16" height="4" fill="#0e2a24"/><rect x="-349" y="132" width="16" height="4" fill="#0e2a24"/><rect x="-353" y="136" width="24" height="4" fill="#0e2a24"/><rect x="-353" y="140" width="24" height="4" fill="#0e2a24"/><rect x="-357" y="144" width="32" height="4" fill="#0e2a24"/><rect x="615" y="140" width="8" height="160" fill="#0e2a24"/><rect x="615" y="124" width="8" height="4" fill="#0e2a24"/><rect x="611" y="128" width="16" height="4" fill="#0e2a24"/><rect x="611" y="132" width="16" height="4" fill="#0e2a24"/><rect x="607" y="136" width="24" height="4" fill="#0e2a24"/><rect x="607" y="140" width="24" height="4" fill="#0e2a24"/><rect x="603" y="144" width="32" height="4" fill="#0e2a24"/><rect x="207" y="140" width="8" height="160" fill="#0e2a24"/><rect x="207" y="124" width="8" height="4" fill="#0e2a24"/><rect x="203" y="128" width="16" height="4" fill="#0e2a24"/><rect x="203" y="132" width="16" height="4" fill="#0e2a24"/><rect x="199" y="136" width="24" height="4" fill="#0e2a24"/><rect x="199" y="140" width="24" height="4" fill="#0e2a24"/><rect x="195" y="144" width="32" height="4" fill="#0e2a24"/><rect x="-273" y="140" width="8" height="160" fill="#0e2a24"/><rect x="-273" y="124" width="8" height="4" fill="#0e2a24"/><rect x="-277" y="128" width="16" height="4" fill="#0e2a24"/><rect x="-277" y="132" width="16" height="4" fill="#0e2a24"/><rect x="-281" y="136" width="24" height="4" fill="#0e2a24"/><rect x="-281" y="140" width="24" height="4" fill="#0e2a24"/><rect x="-285" y="144" width="32" height="4" fill="#0e2a24"/><rect x="687" y="140" width="8" height="160" fill="#0e2a24"/><rect x="687" y="124" width="8" height="4" fill="#0e2a24"/><rect x="683" y="128" width="16" height="4" fill="#0e2a24"/><rect x="683" y="132" width="16" height="4" fill="#0e2a24"/><rect x="679" y="136" width="24" height="4" fill="#0e2a24"/><rect x="679" y="140" width="24" height="4" fill="#0e2a24"/><rect x="675" y="144" width="32" height="4" fill="#0e2a24"/><rect x="264" y="140" width="8" height="160" fill="#0e2a24"/><rect x="264" y="124" width="8" height="4" fill="#0e2a24"/><rect x="260" y="128" width="16" height="4" fill="#0e2a24"/><rect x="260" y="132" width="16" height="4" fill="#0e2a24"/><rect x="256" y="136" width="24" height="4" fill="#0e2a24"/><rect x="256" y="140" width="24" height="4" fill="#0e2a24"/><rect x="252" y="144" width="32" height="4" fill="#0e2a24"/><rect x="-216" y="140" width="8" height="160" fill="#0e2a24"/><rect x="-216" y="124" width="8" height="4" fill="#0e2a24"/><rect x="-220" y="128" width="16" height="4" fill="#0e2a24"/><rect x="-220" y="132" width="16" height="4" fill="#0e2a24"/><rect x="-224" y="136" width="24" height="4" fill="#0e2a24"/><rect x="-224" y="140" width="24" height="4" fill="#0e2a24"/><rect x="-228" y="144" width="32" height="4" fill="#0e2a24"/><rect x="744" y="140" width="8" height="160" fill="#0e2a24"/><rect x="744" y="124" width="8" height="4" fill="#0e2a24"/><rect x="740" y="128" width="16" height="4" fill="#0e2a24"/><rect x="740" y="132" width="16" height="4" fill="#0e2a24"/><rect x="736" y="136" width="24" height="4" fill="#0e2a24"/><rect x="736" y="140" width="24" height="4" fill="#0e2a24"/><rect x="732" y="144" width="32" height="4" fill="#0e2a24"/><rect x="348" y="140" width="8" height="160" fill="#0e2a24"/><rect x="348" y="76" width="8" height="4" fill="#0e2a24"/><rect x="344" y="80" width="16" height="4" fill="#0e2a24"/><rect x="340" y="84" width="24" height="4" fill="#0e2a24"/><rect x="336" y="88" width="32" height="4" fill="#0e2a24"/><rect x="332" y="92" width="40" height="4" fill="#0e2a24"/><rect x="328" y="96" width="48" height="4" fill="#0e2a24"/><rect x="344" y="100" width="16" height="4" fill="#0e2a24"/><rect x="340" y="104" width="24" height="4" fill="#0e2a24"/><rect x="336" y="108" width="32" height="4" fill="#0e2a24"/><rect x="332" y="112" width="40" height="4" fill="#0e2a24"/><rect x="328" y="116" width="48" height="4" fill="#0e2a24"/><rect x="324" y="120" width="56" height="4" fill="#0e2a24"/><rect x="340" y="124" width="24" height="4" fill="#0e2a24"/><rect x="336" y="128" width="32" height="4" fill="#0e2a24"/><rect x="332" y="132" width="40" height="4" fill="#0e2a24"/><rect x="328" y="136" width="48" height="4" fill="#0e2a24"/><rect x="324" y="140" width="56" height="4" fill="#0e2a24"/><rect x="320" y="144" width="64" height="4" fill="#0e2a24"/><rect x="-132" y="140" width="8" height="160" fill="#0e2a24"/><rect x="-132" y="76" width="8" height="4" fill="#0e2a24"/><rect x="-136" y="80" width="16" height="4" fill="#0e2a24"/><rect x="-140" y="84" width="24" height="4" fill="#0e2a24"/><rect x="-144" y="88" width="32" height="4" fill="#0e2a24"/><rect x="-148" y="92" width="40" height="4" fill="#0e2a24"/><rect x="-152" y="96" width="48" height="4" fill="#0e2a24"/><rect x="-136" y="100" width="16" height="4" fill="#0e2a24"/><rect x="-140" y="104" width="24" height="4" fill="#0e2a24"/><rect x="-144" y="108" width="32" height="4" fill="#0e2a24"/><rect x="-148" y="112" width="40" height="4" fill="#0e2a24"/><rect x="-152" y="116" width="48" height="4" fill="#0e2a24"/><rect x="-156" y="120" width="56" height="4" fill="#0e2a24"/><rect x="-140" y="124" width="24" height="4" fill="#0e2a24"/><rect x="-144" y="128" width="32" height="4" fill="#0e2a24"/><rect x="-148" y="132" width="40" height="4" fill="#0e2a24"/><rect x="-152" y="136" width="48" height="4" fill="#0e2a24"/><rect x="-156" y="140" width="56" height="4" fill="#0e2a24"/><rect x="-160" y="144" width="64" height="4" fill="#0e2a24"/><rect x="828" y="140" width="8" height="160" fill="#0e2a24"/><rect x="828" y="76" width="8" height="4" fill="#0e2a24"/><rect x="824" y="80" width="16" height="4" fill="#0e2a24"/><rect x="820" y="84" width="24" height="4" fill="#0e2a24"/><rect x="816" y="88" width="32" height="4" fill="#0e2a24"/><rect x="812" y="92" width="40" height="4" fill="#0e2a24"/><rect x="808" y="96" width="48" height="4" fill="#0e2a24"/><rect x="824" y="100" width="16" height="4" fill="#0e2a24"/><rect x="820" y="104" width="24" height="4" fill="#0e2a24"/><rect x="816" y="108" width="32" height="4" fill="#0e2a24"/><rect x="812" y="112" width="40" height="4" fill="#0e2a24"/><rect x="808" y="116" width="48" height="4" fill="#0e2a24"/><rect x="804" y="120" width="56" height="4" fill="#0e2a24"/><rect x="820" y="124" width="24" height="4" fill="#0e2a24"/><rect x="816" y="128" width="32" height="4" fill="#0e2a24"/><rect x="812" y="132" width="40" height="4" fill="#0e2a24"/><rect x="808" y="136" width="48" height="4" fill="#0e2a24"/><rect x="804" y="140" width="56" height="4" fill="#0e2a24"/><rect x="800" y="144" width="64" height="4" fill="#0e2a24"/><rect x="413" y="140" width="8" height="160" fill="#0e2a24"/><rect x="413" y="124" width="8" height="4" fill="#0e2a24"/><rect x="409" y="128" width="16" height="4" fill="#0e2a24"/><rect x="409" y="132" width="16" height="4" fill="#0e2a24"/><rect x="405" y="136" width="24" height="4" fill="#0e2a24"/><rect x="405" y="140" width="24" height="4" fill="#0e2a24"/><rect x="401" y="144" width="32" height="4" fill="#0e2a24"/><rect x="-67" y="140" width="8" height="160" fill="#0e2a24"/><rect x="-67" y="124" width="8" height="4" fill="#0e2a24"/><rect x="-71" y="128" width="16" height="4" fill="#0e2a24"/><rect x="-71" y="132" width="16" height="4" fill="#0e2a24"/><rect x="-75" y="136" width="24" height="4" fill="#0e2a24"/><rect x="-75" y="140" width="24" height="4" fill="#0e2a24"/><rect x="-79" y="144" width="32" height="4" fill="#0e2a24"/><rect x="893" y="140" width="8" height="160" fill="#0e2a24"/><rect x="893" y="124" width="8" height="4" fill="#0e2a24"/><rect x="889" y="128" width="16" height="4" fill="#0e2a24"/><rect x="889" y="132" width="16" height="4" fill="#0e2a24"/><rect x="885" y="136" width="24" height="4" fill="#0e2a24"/><rect x="885" y="140" width="24" height="4" fill="#0e2a24"/><rect x="881" y="144" width="32" height="4" fill="#0e2a24"/><rect x="0" y="144" width="480" height="16" fill="#0e2a24"/></svg>
