<svg xmlns="http://www.w3.org/2000/svg" width="320" height="320" viewBox="0 0 320 320" shape-rendering="crispEdges"><rect x="252" y="132" width="4" height="12" fill="#ffd23f"/><rect x="248" y="136" width="12" height="4" fill="#ffd23f"/><rect x="252" y="136" width="4" height="4" fill="#fff3a3"/><rect x="184" y="120" width="4" height="12" fill="#ffd23f"/><rect x="180" y="124" width="12" height="4" fill="#ffd23f"/><rect x="184" y="124" width="4" height="4" fill="#fff3a3"/><rect x="240" y="164" width="4" height="12" fill="#ffd23f"/><rect x="236" y="168" width="12" height="4" fill="#ffd23f"/><rect x="240" y="168" width="4" height="4" fill="#fff3a3"/><rect x="40" y="268" width="4" height="12" fill="#ffd23f"/><rect x="36" y="272" width="12" height="4" fill="#ffd23f"/><rect x="40" y="272" width="4" height="4" fill="#fff3a3"/><rect x="160" y="108" width="4" height="12" fill="#ffd23f"/><rect x="156" y="112" width="12" height="4" fill="#ffd23f"/><rect x="160" y="112" width="4" height="4" fill="#fff3a3"/><rect x="284" y="36" width="4" height="12" fill="#ffd23f"/><rect x="280" y="40" width="12" height="4" fill="#ffd23f"/><rect x="284" y="40" width="4" height="4" fill="#fff3a3"/><rect x="76" y="172" width="4" height="12" fill="#ffd23f"/><rect x="72" y="176" width="12" height="4" fill="#ffd23f"/><rect x="76" y="176" width="4" height="4" fill="#fff3a3"/><rect x="48" y="172" width="4" height="12" fill="#ffd23f"/><rect x="44" y="176" width="12" height="4" fill="#ffd23f"/><rect x="48" y="176" width="4" height="4" fill="#fff3a3"/><rect x="160" y="108" width="4" height="12" fill="#ffd23f"/><rect x="156" y="112" width="12" height="4" fill="#ffd23f"/><rect x="160" y="112" width="4" height="4" fill="#fff3a3"/><rect x="96" y="28" width="4" height="12" fill="#ffd23f"/><rect x="92" y="32" width="12" height="4" fill="#ffd23f"/><rect x="96" y="32" width="4" height="4" fill="#fff3a3"/><rect x="168" y="304" width="4" height="12" fill="#ffd23f"/><rect x="164" y="308" width="12" height="4" fill="#ffd23f"/><rect x="168" y="308" width="4" height="4" fill="#fff3a3"/><rect x="308" y="212" width="4" height="12" fill="#ffd23f"/><rect x="304" y="216" width="12" height="4" fill="#ffd23f"/><rect x="308" y="216" width="4" height="4" fill="#fff3a3"/><rect x="44" y="32" width="4" height="4" fill="#ffcf7a" opacity="0.85"/><rect x="308" y="168" width="4" height="4" fill="#ff9f1c" opacity="0.4"/><rect x="220" y="0" width="4" height="4" fill="#ffcf7a" opacity="0.6"/><rect x="116" y="172" width="4" height="4" fill="#fff3a3" opacity="0.4"/><rect x="136" y="220" width="4" height="4" fill="#fff3a3" opacity="0.4"/><rect x="52" y="100" width="4" height="4" fill="#ff9f1c" opacity="0.85"/><rect x="224" y="136" width="4" height="4" fill="#ffcf7a" opacity="0.4"/><rect x="296" y="232" width="4" height="4" fill="#ff9f1c" opacity="0.4"/><rect x="64" y="136" width="4" height="4" fill="#ff9f1c" opacity="0.6"/><rect x="316" y="104" width="4" height="4" fill="#ff9f1c" opacity="0.6"/><rect x="272" y="296" width="4" height="4" fill="#fff3a3" opacity="0.85"/><rect x="60" y="208" width="4" height="4" fill="#fff3a3" opacity="0.6"/><rect x="316" y="60" width="4" height="4" fill="#fff3a3" opacity="0.4"/><rect x="276" y="252" width="4" height="4" fill="#fff3a3" opacity="0.4"/><rect x="216" y="264" width="4" height="4" fill="#fff3a3" opacity="0.4"/><rect x="272" y="64" width="4" height="4" fill="#ffcf7a" opacity="0.4"/><rect x="252" y="292" width="4" height="4" fill="#fff3a3" opacity="0.85"/><rect x="264" y="152" width="4" height="4" fill="#ff9f1c" opacity="0.85"/><rect x="44" y="188" width="4" height="4" fill="#ffcf7a" opacity="0.6"/><rect x="264" y="76" width="4" height="4" fill="#fff3a3" opacity="0.6"/><rect x="0" y="180" width="4" height="4" fill="#ff9f1c" opacity="0.85"/><rect x="4" y="300" width="4" height="4" fill="#ff9f1c" opacity="0.85"/><rect x="208" y="240" width="4" height="4" fill="#fff3a3" opacity="0.4"/><rect x="272" y="112" width="4" height="4" fill="#fff3a3" opacity="0.4"/></svg>