<svg xmlns="http://www.w3.org/2000/svg" width="320" height="320" viewBox="0 0 320 320" shape-rendering="crispEdges"><rect x="72" y="228" width="4" height="12" fill="#fffdf3"/><rect x="68" y="232" width="12" height="4" fill="#fffdf3"/><rect x="72" y="232" width="4" height="4" fill="#ffd23f"/><rect x="232" y="84" width="4" height="12" fill="#fffdf3"/><rect x="228" y="88" width="12" height="4" fill="#fffdf3"/><rect x="232" y="88" width="4" height="4" fill="#ffd23f"/><rect x="200" y="172" width="4" height="12" fill="#fffdf3"/><rect x="196" y="176" width="12" height="4" fill="#fffdf3"/><rect x="200" y="176" width="4" height="4" fill="#ffd23f"/><rect x="220" y="252" width="4" height="12" fill="#fffdf3"/><rect x="216" y="256" width="12" height="4" fill="#fffdf3"/><rect x="220" y="256" width="4" height="4" fill="#ffd23f"/><rect x="56" y="268" width="4" height="12" fill="#fffdf3"/><rect x="52" y="272" width="12" height="4" fill="#fffdf3"/><rect x="56" y="272" width="4" height="4" fill="#ffd23f"/><rect x="60" y="36" width="4" height="12" fill="#fffdf3"/><rect x="56" y="40" width="12" height="4" fill="#fffdf3"/><rect x="60" y="40" width="4" height="4" fill="#ffd23f"/><rect x="232" y="128" width="4" height="12" fill="#fffdf3"/><rect x="228" y="132" width="12" height="4" fill="#fffdf3"/><rect x="232" y="132" width="4" height="4" fill="#ffd23f"/><rect x="24" y="100" width="4" height="12" fill="#fffdf3"/><rect x="20" y="104" width="12" height="4" fill="#fffdf3"/><rect x="24" y="104" width="4" height="4" fill="#ffd23f"/><rect x="168" y="112" width="4" height="12" fill="#fffdf3"/><rect x="164" y="116" width="12" height="4" fill="#fffdf3"/><rect x="168" y="116" width="4" height="4" fill="#ffd23f"/><rect x="156" y="100" width="4" height="12" fill="#fffdf3"/><rect x="152" y="104" width="12" height="4" fill="#fffdf3"/><rect x="156" y="104" width="4" height="4" fill="#ffd23f"/><rect x="88" y="72" width="4" height="4" fill="#fffdf3" opacity="0.8"/><rect x="92" y="76" width="4" height="4" fill="#fffdf3" opacity="0.8"/><rect x="96" y="80" width="4" height="4" fill="#d9c49a" opacity="0.8"/><rect x="96" y="176" width="4" height="4" fill="#fffdf3" opacity="0.8"/><rect x="100" y="180" width="4" height="4" fill="#fffdf3" opacity="0.8"/><rect x="104" y="184" width="4" height="4" fill="#d9c49a" opacity="0.8"/><rect x="188" y="208" width="4" height="4" fill="#fffdf3" opacity="0.8"/><rect x="192" y="212" width="4" height="4" fill="#fffdf3" opacity="0.8"/><rect x="196" y="216" width="4" height="4" fill="#d9c49a" opacity="0.8"/><rect x="104" y="204" width="4" height="4" fill="#fffdf3" opacity="0.8"/><rect x="108" y="208" width="4" height="4" fill="#fffdf3" opacity="0.8"/><rect x="112" y="212" width="4" height="4" fill="#d9c49a" opacity="0.8"/><rect x="236" y="284" width="4" height="4" fill="#fffdf3" opacity="0.8"/><rect x="240" y="288" width="4" height="4" fill="#fffdf3" opacity="0.8"/><rect x="244" y="292" width="4" height="4" fill="#d9c49a" opacity="0.8"/><rect x="140" y="192" width="4" height="4" fill="#fffdf3" opacity="0.8"/><rect x="144" y="196" width="4" height="4" fill="#fffdf3" opacity="0.8"/><rect x="148" y="200" width="4" height="4" fill="#d9c49a" opacity="0.8"/><rect x="80" y="60" width="4" height="4" fill="#fff3a3" opacity="0.7"/><rect x="92" y="0" width="4" height="4" fill="#fff3a3" opacity="0.4"/><rect x="308" y="200" width="4" height="4" fill="#fff3a3" opacity="0.7"/><rect x="72" y="288" width="4" height="4" fill="#fff3a3" opacity="0.7"/><rect x="80" y="96" width="4" height="4" fill="#fff3a3" opacity="0.7"/><rect x="84" y="12" width="4" height="4" fill="#fff3a3" opacity="0.4"/><rect x="120" y="228" width="4" height="4" fill="#fff3a3" opacity="0.4"/><rect x="196" y="64" width="4" height="4" fill="#fff3a3" opacity="0.7"/><rect x="316" y="280" width="4" height="4" fill="#fff3a3" opacity="0.4"/><rect x="24" y="308" width="4" height="4" fill="#fff3a3" opacity="0.4"/><rect x="124" y="316" width="4" height="4" fill="#fff3a3" opacity="0.7"/><rect x="256" y="148" width="4" height="4" fill="#fff3a3" opacity="0.4"/><rect x="300" y="172" width="4" height="4" fill="#fff3a3" opacity="0.4"/><rect x="268" y="172" width="4" height="4" fill="#fff3a3" opacity="0.4"/><rect x="276" y="184" width="4" height="4" fill="#fff3a3" opacity="0.7"/><rect x="244" y="204" width="4" height="4" fill="#fff3a3" opacity="0.4"/><rect x="28" y="48" width="4" height="4" fill="#fff3a3" opacity="0.7"/><rect x="152" y="220" width="4" height="4" fill="#fff3a3" opacity="0.7"/></svg>