<svg xmlns="http://www.w3.org/2000/svg" width="480" height="160" viewBox="0 0 480 160" shape-rendering="crispEdges"><rect x="60" y="84" width="24" height="8" fill="#fff3a3"/><rect x="64" y="92" width="16" height="48" fill="#ffd88a"/><rect x="64" y="92" width="4" height="48" fill="#fff3a3"/><rect x="76" y="92" width="4" height="48" fill="#c79a3a"/><rect x="60" y="140" width="24" height="4" fill="#c79a3a"/><rect x="200" y="84" width="24" height="8" fill="#fff3a3"/><rect x="204" y="92" width="16" height="48" fill="#ffd88a"/><rect x="204" y="92" width="4" height="48" fill="#fff3a3"/><rect x="216" y="92" width="4" height="48" fill="#c79a3a"/><rect x="200" y="140" width="24" height="4" fill="#c79a3a"/><rect x="330" y="84" width="24" height="8" fill="#fff3a3"/><rect x="334" y="92" width="16" height="48" fill="#ffd88a"/><rect x="334" y="92" width="4" height="48" fill="#fff3a3"/><rect x="346" y="92" width="4" height="48" fill="#c79a3a"/><rect x="330" y="140" width="24" height="4" fill="#c79a3a"/><rect x="440" y="84" width="24" height="8" fill="#fff3a3"/><rect x="444" y="92" width="16" height="48" fill="#ffd88a"/><rect x="444" y="92" width="4" height="48" fill="#fff3a3"/><rect x="456" y="92" width="4" height="48" fill="#c79a3a"/><rect x="440" y="140" width="24" height="4" fill="#c79a3a"/><rect x="-16" y="128" width="56" height="32" fill="#e6dcff"/><rect x="-4" y="120" width="32" height="8" fill="#e6dcff"/><rect x="40" y="128" width="56" height="32" fill="#e6dcff"/><rect x="52" y="120" width="32" height="8" fill="#e6dcff"/><rect x="96" y="128" width="56" height="32" fill="#e6dcff"/><rect x="108" y="120" width="32" height="8" fill="#e6dcff"/><rect x="152" y="128" width="56" height="32" fill="#e6dcff"/><rect x="164" y="120" width="32" height="8" fill="#e6dcff"/><rect x="208" y="128" width="56" height="32" fill="#e6dcff"/><rect x="220" y="120" width="32" height="8" fill="#e6dcff"/><rect x="264" y="128" width="56" height="32" fill="#e6dcff"/><rect x="276" y="120" width="32" height="8" fill="#e6dcff"/><rect x="320" y="128" width="56" height="32" fill="#e6dcff"/><rect x="332" y="120" width="32" height="8" fill="#e6dcff"/><rect x="376" y="128" width="56" height="32" fill="#e6dcff"/><rect x="388" y="120" width="32" height="8" fill="#e6dcff"/><rect x="432" y="128" width="56" height="32" fill="#e6dcff"/><rect x="444" y="120" width="32" height="8" fill="#e6dcff"/><rect x="12" y="136" width="44" height="24" fill="#fffdf3"/><rect x="20" y="128" width="28" height="8" fill="#fffdf3"/><rect x="68" y="136" width="44" height="24" fill="#fffdf3"/><rect x="76" y="128" width="28" height="8" fill="#fffdf3"/><rect x="124" y="136" width="44" height="24" fill="#fffdf3"/><rect x="132" y="128" width="28" height="8" fill="#fffdf3"/><rect x="180" y="136" width="44" height="24" fill="#fffdf3"/><rect x="188" y="128" width="28" height="8" fill="#fffdf3"/><rect x="236" y="136" width="44" height="24" fill="#fffdf3"/><rect x="244" y="128" width="28" height="8" fill="#fffdf3"/><rect x="292" y="136" width="44" height="24" fill="#fffdf3"/><rect x="300" y="128" width="28" height="8" fill="#fffdf3"/><rect x="348" y="136" width="44" height="24" fill="#fffdf3"/><rect x="356" y="128" width="28" height="8" fill="#fffdf3"/><rect x="404" y="136" width="44" height="24" fill="#fffdf3"/><rect x="412" y="128" width="28" height="8" fill="#fffdf3"/><rect x="460" y="136" width="44" height="24" fill="#fffdf3"/><rect x="468" y="128" width="28" height="8" fill="#fffdf3"/></svg>