<svg xmlns="http://www.w3.org/2000/svg" width="320" height="320" viewBox="0 0 320 320" shape-rendering="crispEdges"><rect x="36" y="304" width="24" height="8" fill="#fffdf3" opacity="0.85"/><rect x="40" y="300" width="12" height="4" fill="#fffdf3" opacity="0.85"/><rect x="36" y="312" width="24" height="4" fill="#d9e4ff" opacity="0.85"/><rect x="92" y="176" width="24" height="8" fill="#fffdf3" opacity="0.85"/><rect x="96" y="172" width="12" height="4" fill="#fffdf3" opacity="0.85"/><rect x="92" y="184" width="24" height="4" fill="#d9e4ff" opacity="0.85"/><rect x="276" y="316" width="24" height="8" fill="#fffdf3" opacity="0.85"/><rect x="280" y="312" width="12" height="4" fill="#fffdf3" opacity="0.85"/><rect x="276" y="324" width="24" height="4" fill="#d9e4ff" opacity="0.85"/><rect x="188" y="156" width="24" height="8" fill="#fffdf3" opacity="0.85"/><rect x="192" y="152" width="12" height="4" fill="#fffdf3" opacity="0.85"/><rect x="188" y="164" width="24" height="4" fill="#d9e4ff" opacity="0.85"/><rect x="304" y="64" width="24" height="8" fill="#fffdf3" opacity="0.85"/><rect x="308" y="60" width="12" height="4" fill="#fffdf3" opacity="0.85"/><rect x="304" y="72" width="24" height="4" fill="#d9e4ff" opacity="0.85"/><rect x="172" y="116" width="24" height="8" fill="#fffdf3" opacity="0.85"/><rect x="176" y="112" width="12" height="4" fill="#fffdf3" opacity="0.85"/><rect x="172" y="124" width="24" height="4" fill="#d9e4ff" opacity="0.85"/><rect x="192" y="72" width="4" height="4" fill="#fffdf3" opacity="0.7"/><rect x="12" y="112" width="4" height="4" fill="#fffdf3" opacity="0.7"/><rect x="232" y="4" width="4" height="4" fill="#fff3a3" opacity="0.4"/><rect x="228" y="32" width="4" height="4" fill="#fff3a3" opacity="0.7"/><rect x="148" y="44" width="4" height="4" fill="#fffdf3" opacity="0.4"/><rect x="256" y="160" width="4" height="4" fill="#fff3a3" opacity="0.4"/><rect x="8" y="212" width="4" height="4" fill="#fff3a3" opacity="0.7"/><rect x="128" y="136" width="4" height="4" fill="#fff3a3" opacity="0.7"/><rect x="176" y="188" width="4" height="4" fill="#fffdf3" opacity="0.4"/><rect x="112" y="188" width="4" height="4" fill="#fff3a3" opacity="0.7"/><rect x="248" y="124" width="4" height="4" fill="#fff3a3" opacity="0.4"/><rect x="176" y="300" width="4" height="4" fill="#fffdf3" opacity="0.7"/><rect x="252" y="92" width="4" height="4" fill="#fffdf3" opacity="0.4"/><rect x="152" y="208" width="4" height="4" fill="#fff3a3" opacity="0.4"/><rect x="292" y="168" width="4" height="4" fill="#fffdf3" opacity="0.7"/><rect x="76" y="232" width="4" height="4" fill="#fffdf3" opacity="0.4"/><rect x="108" y="20" width="4" height="4" fill="#fff3a3" opacity="0.4"/><rect x="28" y="168" width="4" height="4" fill="#fffdf3" opacity="0.4"/><rect x="212" y="28" width="4" height="4" fill="#fff3a3" opacity="0.7"/><rect x="192" y="36" width="4" height="4" fill="#fffdf3" opacity="0.7"/></svg>