<svg xmlns="http://www.w3.org/2000/svg" width="320" height="320" viewBox="0 0 320 320" shape-rendering="crispEdges"><rect x="164" y="260" width="4" height="4" fill="#fff4d6" opacity="0.6"/><rect x="76" y="100" width="4" height="4" fill="#fff4d6" opacity="0.9"/><rect x="28" y="304" width="4" height="4" fill="#fff4d6" opacity="0.9"/><rect x="268" y="184" width="4" height="4" fill="#b5b3e0" opacity="0.4"/><rect x="176" y="88" width="16" height="8" fill="#c77dff"/><rect x="180" y="84" width="8" height="16" fill="#c77dff"/><rect x="180" y="88" width="4" height="4" fill="#fff4d6" opacity="0.6"/><rect x="172" y="92" width="24" height="2" fill="#fff4d6" opacity="0.5"/><rect x="12" y="196" width="4" height="4" fill="#fff4d6" opacity="0.4"/><rect x="164" y="220" width="4" height="4" fill="#fff4d6" opacity="0.9"/><rect x="8" y="124" width="4" height="4" fill="#fff4d6" opacity="0.4"/><rect x="260" y="180" width="4" height="4" fill="#fff4d6" opacity="0.6"/><rect x="176" y="104" width="4" height="4" fill="#fff4d6" opacity="0.4"/><rect x="124" y="48" width="4" height="4" fill="#b5b3e0" opacity="0.6"/><rect x="252" y="288" width="4" height="4" fill="#b5b3e0" opacity="0.6"/><rect x="48" y="104" width="4" height="4" fill="#fff4d6" opacity="0.4"/><rect x="292" y="224" width="4" height="4" fill="#b5b3e0" opacity="0.6"/><rect x="48" y="316" width="4" height="4" fill="#b5b3e0" opacity="0.9"/><rect x="12" y="16" width="4" height="4" fill="#fff4d6" opacity="0.6"/><rect x="164" y="256" width="4" height="4" fill="#b5b3e0" opacity="0.4"/><rect x="136" y="72" width="4" height="4" fill="#b5b3e0" opacity="0.9"/><rect x="236" y="120" width="4" height="4" fill="#7df9ff" opacity="0.4"/><rect x="108" y="224" width="4" height="4" fill="#b5b3e0" opacity="0.6"/><rect x="132" y="156" width="4" height="4" fill="#7df9ff" opacity="0.6"/><rect x="316" y="248" width="4" height="4" fill="#b5b3e0" opacity="0.4"/><rect x="208" y="108" width="4" height="4" fill="#7df9ff" opacity="0.9"/><rect x="256" y="148" width="4" height="4" fill="#fff4d6" opacity="0.6"/><rect x="216" y="32" width="4" height="4" fill="#b5b3e0" opacity="0.9"/><rect x="76" y="228" width="4" height="4" fill="#7df9ff" opacity="0.6"/><rect x="300" y="248" width="16" height="8" fill="#4cc9ff"/><rect x="304" y="244" width="8" height="16" fill="#4cc9ff"/><rect x="304" y="248" width="4" height="4" fill="#fff4d6" opacity="0.6"/><rect x="296" y="252" width="24" height="2" fill="#fff4d6" opacity="0.5"/><rect x="52" y="288" width="4" height="4" fill="#7df9ff" opacity="0.6"/><rect x="156" y="280" width="4" height="4" fill="#b5b3e0" opacity="0.9"/><rect x="8" y="136" width="4" height="4" fill="#b5b3e0" opacity="0.9"/><rect x="128" y="184" width="4" height="4" fill="#fff4d6" opacity="0.9"/><rect x="228" y="308" width="4" height="4" fill="#7df9ff" opacity="0.6"/><rect x="252" y="80" width="4" height="4" fill="#7df9ff" opacity="0.9"/><rect x="220" y="200" width="4" height="4" fill="#7df9ff" opacity="0.6"/><rect x="228" y="64" width="4" height="4" fill="#fff4d6" opacity="0.4"/><rect x="288" y="36" width="4" height="4" fill="#7df9ff" opacity="0.6"/><rect x="120" y="72" width="4" height="4" fill="#fff4d6" opacity="0.4"/><rect x="232" y="4" width="4" height="4" fill="#fff4d6" opacity="0.6"/><rect x="68" y="64" width="4" height="4" fill="#fff4d6" opacity="0.9"/><rect x="4" y="244" width="4" height="4" fill="#fff4d6" opacity="0.4"/><rect x="188" y="204" width="4" height="4" fill="#b5b3e0" opacity="0.9"/><rect x="132" y="284" width="4" height="4" fill="#fff4d6" opacity="0.9"/><rect x="128" y="184" width="4" height="4" fill="#fff4d6" opacity="0.9"/><rect x="272" y="228" width="4" height="4" fill="#fff4d6" opacity="0.4"/></svg>
