<svg xmlns="http://www.w3.org/2000/svg" width="480" height="160" viewBox="0 0 480 160" shape-rendering="crispEdges"><path fill="#6b6f8a" d="M0 160V116H16V108H32V112H48V112H64V116H80V112H96V112H112V112H128V116H144V108H160V108H176V108H192V112H208V116H224V112H240V112H256V108H272V108H288V108H304V108H320V108H336V108H352V108H368V112H384V112H400V112H416V116H432V116H448V112H464V116H480V160Z"/><rect x="16" y="144" width="24" height="4" fill="#4a4d66"/><rect x="20" y="148" width="16" height="4" fill="#3a3c52"/><rect x="16" y="140" width="24" height="4" fill="#9ea3c0"/><rect x="80" y="144" width="24" height="4" fill="#4a4d66"/><rect x="84" y="148" width="16" height="4" fill="#3a3c52"/><rect x="80" y="140" width="24" height="4" fill="#9ea3c0"/><rect x="140" y="136" width="24" height="4" fill="#4a4d66"/><rect x="144" y="140" width="16" height="4" fill="#3a3c52"/><rect x="140" y="132" width="24" height="4" fill="#9ea3c0"/><rect x="224" y="136" width="24" height="4" fill="#4a4d66"/><rect x="228" y="140" width="16" height="4" fill="#3a3c52"/><rect x="224" y="132" width="24" height="4" fill="#9ea3c0"/><rect x="280" y="128" width="24" height="4" fill="#4a4d66"/><rect x="284" y="132" width="16" height="4" fill="#3a3c52"/><rect x="280" y="124" width="24" height="4" fill="#9ea3c0"/><rect x="340" y="128" width="24" height="4" fill="#4a4d66"/><rect x="344" y="132" width="16" height="4" fill="#3a3c52"/><rect x="340" y="124" width="24" height="4" fill="#9ea3c0"/><rect x="424" y="136" width="24" height="4" fill="#4a4d66"/><rect x="428" y="140" width="16" height="4" fill="#3a3c52"/><rect x="424" y="132" width="24" height="4" fill="#9ea3c0"/><path fill="#4a4d66" d="M0 160V151H16V148H32V148H48V151H64V148H80V151H96V151H112V148H128V148H144V151H160V148H176V151H192V148H208V148H224V151H240V148H256V148H272V148H288V148H304V151H320V151H336V148H352V148H368V148H384V148H400V148H416V148H432V148H448V148H464V151H480V160Z"/></svg>
